<?xml version="1.0" encoding="UTF-8"?>
<svg id="Layer_1" xmlns="http://www.w3.org/2000/svg" version="1.1" viewBox="0 0 3795.63 1271.69">
  <!-- Generator: Adobe Illustrator 29.2.1, SVG Export Plug-In . SVG Version: 2.1.0 Build 116)  -->
  <defs>
    <style>
      .st0 {
        fill: #044a85;
      }

      .st1 {
        fill: #fff;
      }

      .st2 {
        fill: none;
      }

      .st3 {
        opacity: .5;
      }

      .st3, .st4 {
        fill: #adaaab;
      }
    </style>
  </defs>
  <path class="st2" d="M2712.45,1064.99h-33.07l-13.79,56.14h31.8c18.15,0,31.38-8.3,35.88-26.31,2.25-8.86,1.54-16.18-2.25-21.67-3.52-5.2-9.71-8.01-18.57-8.16Z"/>
  <path class="st2" d="M2530.66,410.31c0-66.06-46.59-94.76-131.4-94.76h-82.82l-46.17,236.54h83.66c117.07,0,176.73-56.27,176.73-141.78Z"/>
  <path class="st2" d="M3368.07,464.02c-4.27,0-9.07,1.06-14.93,3.19-5.86,2.67-11.19,5.86-17.05,10.13-5.34,3.73-14.93,11.19-28.26,21.32-13.86,10.13-29.33,21.86-46.92,35.19-17.59,13.32-36.25,27.72-55.98,42.12-19.72,14.92-38.39,28.79-54.91,41.58-17.06,13.32-31.45,24.52-43.71,33.58-17.59,13.86-33.58,27.19-49.05,43.72-8,9.06-10.66,18.13-9.06,28.26,3.19,63.97,41.58,97.02,104.49,97.02,121.55,0,180.19-128.48,206.31-229.77l9.07-35.73c6.39-26.12,11.73-52.77,13.86-79.97-1.07-6.93-5.86-10.66-13.86-10.66Z"/>
  <path class="st1" d="M0,1052.3c.41-.26.9-.56,1.43-.87-.53.31-1.02.61-1.42.87h0Z"/>
  <path class="st1" d="M631.74,638.34c-4.8-14.35-11.73-21.53-21.32-21.53-6.64,0-15.93,4.87-25.5,11.64,9.57-6.77,18.86-11.64,25.5-11.64,9.59,0,16.52,7.18,21.32,21.53,0,.55,15.46,45.81,16.53,49.12.21.6.42,1.22.62,1.82-.21-.6-.42-1.22-.62-1.82-1.07-3.31-16.53-48.57-16.53-49.12Z"/>
  <path class="st1" d="M1243.76,125.03c35.72-37.53,73.57-72.3,113.55-104.31h0c-39.98,32.01-77.83,66.78-113.55,104.31-65.57,67.89-129.54,150.69-161,242.31l-87.16,365.01,87.16-365.01c31.46-91.62,95.43-174.42,161-242.31Z"/>
  <path class="st1" d="M69.78,1018.03c-3.91,1.59-7.69,3.16-11.35,4.74,3.66-1.57,7.44-3.15,11.35-4.74Z"/>
  <rect class="st1" x="844.99" y="383.15" width="0" height="258.13" transform="translate(-114.7 747.53) rotate(-45)"/>
  <path class="st1" d="M232.6,970.25c-27.49,4.37-54.74,10.68-81.47,18.66,26.73-7.98,53.98-14.29,81.47-18.66Z"/>
  <path class="st1" d="M656.43,711.84c2.29,6.9,4.68,14.05,7.3,21.44,2.38,6.95,5.04,14.84,7.98,23.65-2.95-8.82-5.6-16.7-7.98-23.65-2.62-7.39-5.01-14.54-7.3-21.44Z"/>
  <path class="st1" d="M243.99,968.56c-3.8.53-7.6,1.09-11.4,1.69,3.79-.6,7.59-1.16,11.4-1.69Z"/>
  <path class="st1" d="M740.5,963.44h0c-.27-.79-.53-1.57-.8-2.37.27.79.53,1.57.8,2.37Z"/>
  <path class="st3" d="M930.82,152.64l-4.27,18.21c-25.06,77.28-84.77,189.88-139.15,243.42l343.86-261.62h-200.45Z"/>
  <polygon class="st3" points="578.96 478.83 604.02 553.9 750.1 442.41 654.14 152.64 453.15 152.64 302.28 782.95 551.78 593.64 578.96 478.83"/>
  <path class="st1" d="M535.78,678.47c-.11.19-.22.37-.33.56.11-.19.22-.37.33-.56Z"/>
  <path class="st1" d="M482.48,883.28l44.78-186.98c1.66-4.66,3.74-9.32,6.34-14.03-2.6,4.71-4.68,9.37-6.34,14.03l-44.78,186.98Z"/>
  <path class="st1" d="M303.35,963.44c-19.82.64-39.64,2.38-59.35,5.12,19.72-2.74,39.54-4.49,59.35-5.12h159.93l19.2-80.16-19.2,80.16h-159.93Z"/>
  <path class="st1" d="M545.91,664.29c-3.96,4.82-7.3,9.53-10.13,14.19,2.83-4.65,6.17-9.37,10.13-14.19,6.64-8.25,23.2-24.64,39.01-35.83-15.81,11.19-32.37,27.57-39.01,35.83Z"/>
  <path class="st1" d="M671.71,756.93c4.3,12.87,9.24,27.76,14.94,44.79,15.25,46.84,33.11,100.14,53.05,159.35-19.94-59.21-37.79-112.51-53.05-159.35-5.7-17.04-10.64-31.92-14.94-44.79Z"/>
  <polygon class="st1" points="740.5 963.44 740.5 963.44 940.42 963.44 995.6 732.35 940.42 963.44 740.5 963.44"/>
  <path class="st1" d="M535.45,679.03c-.65,1.08-1.27,2.16-1.86,3.23.59-1.07,1.21-2.15,1.86-3.23Z"/>
  <polygon class="st1" points="1357.31 20.72 874.85 386.65 874.85 386.65 1357.31 20.72 1357.31 20.72"/>
  <path class="st1" d="M656.43,711.84c-2.62-7.9-5.08-15.44-7.53-22.55,2.45,7.12,4.92,14.66,7.53,22.55Z"/>
  <path class="st1" d="M1.43,1051.43c5.05-2.98,15.71-8.3,31.62-16.79,7.62-3.94,16.1-7.89,25.38-11.88-9.28,3.99-17.76,7.93-25.38,11.88-15.92,8.49-26.58,13.81-31.62,16.79Z"/>
  <polygon class="st1" points="815.14 637.79 815.14 637.79 760.76 473.87 0 1052.3 0 1052.3 760.76 473.87 815.14 637.79"/>
  <path class="st1" d="M69.78,1018.03c9.75-3.96,20.26-7.98,31.51-12.09,16.36-6.3,33-11.99,49.84-17.02-16.84,5.03-33.48,10.72-49.84,17.02-11.25,4.11-21.76,8.13-31.51,12.09Z"/>
  <path class="st0" d="M1243.76,125.03c35.72-37.53,73.57-72.3,113.55-104.31l-482.47,365.94-59.71,251.13h0s0,0,0,0l-54.38-163.92L0,1052.3c.41-.26.89-.56,1.42-.87,5.05-2.98,15.71-8.3,31.62-16.79,7.62-3.94,16.1-7.89,25.38-11.88,3.66-1.57,7.44-3.15,11.35-4.74,9.75-3.96,20.26-7.98,31.51-12.09,16.36-6.3,33-11.99,49.84-17.02,26.73-7.98,53.98-14.29,81.47-18.66,3.79-.6,7.59-1.16,11.4-1.69,19.72-2.74,39.54-4.49,59.35-5.12h159.93l19.2-80.16,44.78-186.98c1.66-4.66,3.74-9.32,6.34-14.03.59-1.07,1.21-2.15,1.86-3.23.11-.19.22-.37.33-.56,2.83-4.65,6.17-9.37,10.13-14.19,6.64-8.25,23.2-24.64,39.01-35.83,9.57-6.77,18.86-11.64,25.5-11.64,9.59,0,16.52,7.18,21.32,21.53,0,.55,15.46,45.81,16.53,49.12.21.6.42,1.22.62,1.82,2.45,7.12,4.92,14.66,7.53,22.55,2.29,6.9,4.68,14.05,7.3,21.44,2.38,6.95,5.04,14.84,7.98,23.65,4.3,12.87,9.24,27.76,14.94,44.79,15.25,46.84,33.11,100.14,53.05,159.35.27.79.53,1.57.8,2.37h199.92l55.18-231.09,87.16-365.01c31.46-91.62,95.43-174.42,161-242.31Z"/>
  <path class="st3" d="M1465.05,826.87l331.07-243.1,59.72-241.51h240.97l37.85-153.53h-331.6c-6.4-2.13-9.07-6.4-8.53-13.33.54-6.39,2.67-13.86,7.47-22.92,28.78-50.65,99.15-113.56,142.34-152.48l-465.95,342.26h173.26l-85.83,347.06c-14.92,51.71-63.44,101.3-100.76,137.55Z"/>
  <path class="st0" d="M2493.59,659.98l-47.54-121.27-119.42,106.06,13.42,38.24h2.93c52.7,0,104.1-7.48,150.61-23.03Z"/>
  <path class="st0" d="M2446.05,538.72l47.54,121.27c115.43-38.59,200.7-126.9,200.7-273.99s-114.84-201.38-269.31-201.38h-247.01l-157.45,787.25h165.62l56.97-288.86h96.94l-13.42-38.24,119.42-106.06ZM2316.44,315.55h82.82c84.81,0,131.4,28.7,131.4,94.76,0,85.52-59.66,141.78-176.73,141.78h-83.66l46.17-236.54Z"/>
  <path class="st0" d="M2615.87,971.87l-122.27-311.89c-46.51,15.55-97.92,23.03-150.61,23.03h-2.93l101.38,288.86h174.43Z"/>
  <path class="st3" d="M3052.46,627.15c1.6-5.86,2.67-12.26,4.27-18.65,1.06-5.86,2.66-12.26,4.27-18.66l14.39-57.05c27.19-98.63,83.71-207.38,201.52-207.38,25.06,0,49.58,4.8,69.31,21.86,5.33,6.94,5.33,16.53.53,27.72-14.4,34.12-50.65,68.24-77.3,92.77l270.82-198.85c-52.78-71.97-141.28-99.16-227.65-99.16-228.71,0-396.64,169-450.48,385.45l-11.2,43.71c-14.92,66.64-16.53,126.88-4.79,180.2l206.31-151.95Z"/>
  <polygon class="st0" points="1122.18 971.87 1287.8 971.87 1445.25 184.62 1279.63 184.62 1122.18 971.87"/>
  <path class="st0" d="M1636.18,44.78l-3.73,13.32c-11.19,49.58-45.85,101.82-77.83,140.21-13.86,16.53-27.72,33.06-41.58,49.05-13.87,15.99-26.12,30.38-37.32,42.64-11.19,12.26-18.66,20.26-21.86,23.46L1819.57,44.78h-183.4Z"/>
  <path class="st0" d="M1495.97,971.87h204.18l50.65-204.18c10.67-36.79,28.79-71.97,53.31-101.3,18.13-23.46,37.86-45.85,57.58-68.24,15.46-17.59,31.99-35.18,48.52-53.84l-376.92,277.22-37.31,150.34Z"/>
  <path class="st0" d="M2636.09,971.02c50.65-29.32,103.97-54.91,159.41-73.57,22.92-6.94,46.38-13.33,70.37-13.33,18.66,0,32.52,4.27,41.58,13.33,55.98,55.98,132.75,76.24,210.05,76.24,227.64,0,396.11-169,449.43-384.92l8.52-35.72c15.99-64.51,19.2-122.62,9.59-174.85-1.06-9.07,1.07-20.26,6.4-32.52,16.53-42.65,63.45-93.83,95.43-124.75,31.45-32.52,67.7-66.64,108.76-101.3l-1159.54,851.39ZM3368.07,554.65l-9.07,35.73c-26.12,101.29-84.77,229.77-206.31,229.77-62.91,0-101.3-33.05-104.49-97.02-1.6-10.13,1.06-19.2,9.06-28.26,15.47-16.53,31.46-29.86,49.05-43.72,12.26-9.06,26.66-20.26,43.71-33.58,16.53-12.79,35.19-26.66,54.91-41.58,19.72-14.4,38.39-28.79,55.98-42.12,17.59-13.33,33.06-25.06,46.92-35.19,13.32-10.13,22.92-17.59,28.26-21.32,5.86-4.27,11.19-7.46,17.05-10.13,5.86-2.13,10.67-3.19,14.93-3.19,8,0,12.79,3.73,13.86,10.66-2.13,27.19-7.47,53.84-13.86,79.97Z"/>
  <path class="st0" d="M2787.73,1095.24c3.52-13.65,2.95-26.02-1.4-36.86-10.42-25.89-38.28-33.35-63.88-33.91l-159,116.79c2.67-1.27,5.77-2.68,9.01-4.22,2.81-1.27,6.05-2.82,9.85-4.64,3.65-1.7,7.59-3.53,11.82-5.49,2.81-1.41,6.33-2.68,9.57-2.68s5.91,1.55,5.91,5.2l-22.37,90.76,77.25-56.56c2.67-1.27,6.75-1.83,9.7-1.83h12.95c44.04,0,89.2-19.98,100.6-66.56ZM2733.28,1094.82c-4.5,18.01-17.72,26.31-35.88,26.31h-31.8l13.79-56.14h33.07c8.86.14,15.06,2.95,18.57,8.16,3.79,5.49,4.5,12.81,2.25,21.67Z"/>
  <path class="st0" d="M2732.01,1002.94c-18.71,10.98-36.02,20.26-58.4,21.53h-37.98l-16.32,65.71,142.4-104.55c-9.85,5.91-19.71,11.68-29.69,17.31Z"/>
  <path class="st0" d="M2562.04,1252.55c12.66-7.59,32.65-18.99,46.29-21.38h29.97l11.68-47-119.32,87.53c10.97-7.04,21.38-13.37,31.37-19.14Z"/>
  <path class="st4" d="M2767.51,1233.84c2.81-12.81,9.99-24.06,18.43-34.06,1.55-1.83,2.95-3.52,4.51-5.35,1.4-1.83,3.23-3.94,5.49-6.47,3.79-4.36,7.74-8.73,11.96-13.37l-80.21,59.24h39.82Z"/>
  <path class="st4" d="M2737.69,1188.39c-4.09,14.07-8.73,22.38-18.44,33.92l-4.5,5.34c-5.78,6.76-11.68,13.37-17.59,19.84l80.34-59.1h-39.81Z"/>
  <path class="st1" d="M2851.81,1024.33l-.99,3.52c-2.95,13.08-12.09,26.87-20.54,37-3.66,4.36-7.32,8.73-10.98,12.94-3.66,4.22-6.9,8.02-9.85,11.26-2.95,3.23-4.92,5.35-5.76,6.19l96.52-70.91h-48.4Z"/>
  <path class="st0" d="M2941.87,1020.8c.14-1.69.71-3.66,1.96-6.05,7.6-13.36,26.18-29.97,37.57-40.24l-122.98,90.34h45.73l-22.66,91.59c-3.94,13.66-16.74,26.74-26.59,36.31l87.37-64.16,15.76-63.74h63.6l9.99-40.52h-87.52c-1.69-.57-2.39-1.7-2.25-3.52Z"/>
  <path class="st0" d="M2863.07,1231.02h53.89l13.37-53.89c2.81-9.71,7.6-18.99,14.07-26.73,4.78-6.19,9.99-12.1,15.19-18.01,4.08-4.65,8.44-9.29,12.81-14.22l-99.48,73.17-9.85,39.68Z"/>
</svg>